<?xml version="1.0" encoding="utf-8"?>
<!-- Generator: Adobe Illustrator 16.0.0, SVG Export Plug-In . SVG Version: 6.00 Build 0)  -->
<!DOCTYPE svg PUBLIC "-//W3C//DTD SVG 1.1//EN" "http://www.w3.org/Graphics/SVG/1.1/DTD/svg11.dtd">
<svg version="1.1" id="Layer_1" xmlns="http://www.w3.org/2000/svg" xmlns:xlink="http://www.w3.org/1999/xlink" x="0px" y="0px"
	 width="1000px" height="192.868px" viewBox="-194 299.566 1000 192.868" enable-background="new -194 299.566 1000 192.868"
	 xml:space="preserve">
<g>
	<g>
		<path fill="#EE2824" d="M-3.815,395.808c0,53.298-41.667,96.626-94.964,96.626c-53.042,0-95.22-43.328-95.22-96.626
			c0-52.786,42.178-96.242,95.22-96.242C-45.482,299.566-3.815,343.022-3.815,395.808z M-187.354,395.808
			c13.42,28.247,44.99,55.854,88.574,55.854c43.328,0,75.153-27.607,88.573-55.854c-13.42-27.863-45.118-55.342-88.573-55.342
			C-142.364,340.465-173.933,367.945-187.354,395.808z M-98.78,344.811c-28.247,0-51.252,23.006-51.252,50.997
			c0,28.501,22.878,51.253,51.252,51.253c28.246,0,50.997-22.752,50.997-51.253C-47.656,367.817-70.534,344.811-98.78,344.811z"/>
		<g>
			<path d="M44.113,396.957c0-24.54,18.789-41.027,43.584-41.027c20.833,0,31.314,12.143,36.043,23.006l-20.706,9.586
				c-2.045-6.135-8.18-11.503-15.337-11.503c-11.503,0-19.3,8.819-19.3,19.811c0,10.992,7.669,19.811,19.3,19.811
				c7.157,0,13.292-5.369,15.337-11.502l20.706,9.457c-4.602,10.607-15.21,23.135-36.043,23.135
				C62.902,437.986,44.113,421.369,44.113,396.957z"/>
			<path d="M129.492,436.58v-79.244h48.185c16.36,0,23.518,10.992,23.518,20.194c0,9.842-5.879,16.488-13.548,18.15
				c8.563,1.277,15.082,9.203,15.082,19.427c0,10.992-7.542,21.473-23.39,21.473H129.492L129.492,436.58z M176.91,381.749
				c0-2.685-2.301-4.474-4.729-4.474h-18.533v9.331h18.533C174.737,386.478,176.91,384.688,176.91,381.749z M178.572,411.656
				c0-2.811-2.173-5.113-5.624-5.113h-19.3v10.098h19.3C176.271,416.641,178.572,414.596,178.572,411.656z"/>
			<path d="M205.284,425.459l12.525-17.766c5.88,5.752,14.827,10.225,25.563,10.225c4.473,0,8.819-1.148,8.819-4.217
				c0-7.668-44.223,0.127-44.223-31.186c0-13.42,11.119-26.329,32.975-26.329c12.909,0,24.668,3.706,33.615,10.992l-12.782,16.999
				c-6.902-5.241-15.849-7.796-23.262-7.796c-4.729,0-6.007,1.534-6.007,3.579c0,7.541,44.095,1.022,44.095,30.547
				c0,17.51-12.909,27.607-34.253,27.607C225.095,437.986,213.592,433.002,205.284,425.459z"/>
		</g>
	</g>
	<g>
		<path d="M317.758,436.58v-80.522h6.902v80.522H317.758z"/>
		<path d="M380.386,436.58v-39.494c0-11.248-5.623-14.571-14.06-14.571c-7.54,0-15.209,4.729-18.915,9.969v44.096h-6.263v-58.283
			h6.263v8.819c4.218-5.113,12.526-10.225,20.961-10.225c11.886,0,18.276,5.751,18.276,18.916v40.772
			C386.521,436.58,380.386,436.58,380.386,436.58z"/>
		<path d="M403.521,425.332v-41.539h-9.714v-5.496h9.714v-15.976h6.391v15.976h11.758v5.496h-11.758v40.515
			c0,4.73,1.916,7.924,6.008,7.924c2.811,0,5.239-1.277,6.519-2.811l2.427,4.857c-2.299,2.174-5.111,3.578-9.842,3.578
			C407.354,437.986,403.521,433.258,403.521,425.332z"/>
		<path d="M426.527,407.311c0-16.871,11.886-30.547,28.118-30.547c17.766,0,27.479,14.059,27.479,30.93v1.662h-48.696
			c0.639,12.654,9.074,23.135,22.75,23.135c7.413,0,14.059-2.813,19.045-8.053l3.195,4.09c-5.752,6.008-13.165,9.459-22.751,9.459
			C438.541,437.986,426.527,425.332,426.527,407.311z M454.518,382.259c-13.804,0-20.578,12.015-21.089,22.239h42.306
			C475.606,394.529,468.96,382.259,454.518,382.259z"/>
		<path d="M494.139,436.58v-58.283h6.264v9.97c4.983-6.519,11.63-11.248,19.683-11.248v6.902c-1.023-0.255-1.917-0.255-3.195-0.255
			c-5.88,0-13.931,5.368-16.487,10.353v42.435h-6.264V436.58z"/>
		<path d="M566.098,436.58v-6.902c-5.241,5.623-11.76,8.309-19.812,8.309c-9.97,0-20.45-6.902-20.45-19.428
			c0-12.654,10.225-19.301,20.45-19.301c8.052,0,14.698,2.686,19.812,8.309v-11.759c0-8.691-7.03-13.42-15.722-13.42
			c-7.285,0-12.908,2.557-18.277,8.563l-3.45-4.345c6.007-6.519,12.781-9.714,22.495-9.714c11.759,0,21.217,5.624,21.217,18.661
			v41.028H566.098z M566.098,425.076v-12.781c-4.09-5.367-10.608-8.053-17.639-8.053c-9.714,0-15.977,6.137-15.977,14.445
			c0,8.178,6.263,14.314,15.977,14.314C555.489,433.129,561.88,430.445,566.098,425.076z"/>
		<path d="M584.246,407.311c0-16.999,11.247-30.547,28.374-30.547c10.098,0,15.978,3.962,20.578,9.842l-4.346,3.834
			c-4.217-5.751-9.586-8.053-15.977-8.053c-13.677,0-21.983,10.864-21.983,24.794c0,13.932,8.307,24.924,21.983,24.924
			c6.391,0,11.76-2.428,15.977-8.18l4.346,3.834c-4.729,6.008-10.48,9.971-20.578,9.971
			C595.493,437.986,584.246,424.438,584.246,407.311z"/>
		<path d="M648.151,425.332v-41.539h-9.712v-5.496h9.712v-15.976h6.391v15.976h11.888v5.496h-11.888v40.515
			c0,4.73,1.918,7.924,6.008,7.924c2.813,0,5.241-1.277,6.519-2.811l2.429,4.857c-2.301,2.174-5.113,3.578-9.842,3.578
			C651.731,437.986,648.151,433.258,648.151,425.332z"/>
		<path d="M675.887,364.366c0-2.685,2.301-4.729,4.857-4.729c2.685,0,4.856,2.045,4.856,4.729c0,2.684-2.172,4.857-4.856,4.857
			C678.188,369.095,675.887,366.922,675.887,364.366z M677.549,436.58v-58.283h6.264v58.283H677.549z"/>
		<path d="M716.531,436.58l-24.668-58.283h7.03l21.217,50.871l20.961-50.871h7.157l-24.668,58.283H716.531z"/>
		<path d="M750.402,407.311c0-16.871,11.886-30.547,28.118-30.547c17.766,0,27.479,14.059,27.479,30.93v1.662h-48.824
			c0.639,12.654,9.074,23.135,22.75,23.135c7.413,0,14.059-2.813,19.045-8.053l3.195,4.09c-5.752,6.008-13.165,9.459-22.752,9.459
			C762.543,437.986,750.402,425.332,750.402,407.311z M778.265,382.259c-13.804,0-20.578,12.015-21.089,22.239h42.306
			C799.354,394.529,792.963,382.259,778.265,382.259z"/>
	</g>
</g>
</svg>
