<?xml version="1.0" encoding="utf-8"?>
<!-- Generator: Adobe Illustrator 26.3.1, SVG Export Plug-In . SVG Version: 6.00 Build 0)  -->
<svg version="1.1" id="Layer_1" xmlns="http://www.w3.org/2000/svg" xmlns:xlink="http://www.w3.org/1999/xlink" x="0px" y="0px"
	 viewBox="0 0 305.93 79.54" style="enable-background:new 0 0 305.93 79.54;" xml:space="preserve">
<style type="text/css">
	.st0{enable-background:new    ;}
</style>
<g class="st0">
	<path d="M0,11.11h11.76c7.59,0,12.73,0.35,15.4,1.05c2.68,0.7,4.71,1.84,6.11,3.44c1.39,1.59,2.27,3.37,2.61,5.32
		c0.35,1.96,0.52,5.79,0.52,11.52V53.6c0,5.43-0.26,9.06-0.77,10.89c-0.51,1.83-1.4,3.26-2.67,4.29c-1.27,1.03-2.84,1.75-4.71,2.17
		s-4.68,0.62-8.44,0.62H0V11.11z M15.72,21.45v39.77c2.27,0,3.66-0.45,4.18-1.36c0.52-0.91,0.78-3.38,0.78-7.41V28.96
		c0-2.74-0.09-4.49-0.26-5.27s-0.57-1.34-1.19-1.7C18.61,21.63,17.44,21.45,15.72,21.45z"/>
	<path d="M58,11.11v60.46H42.27V11.11H58z"/>
	<path d="M97.62,29.41h-14.6v-4.48c0-2.09-0.19-3.42-0.56-4c-0.37-0.57-1-0.86-1.87-0.86c-0.95,0-1.66,0.39-2.15,1.16
		s-0.73,1.94-0.73,3.51c0,2.02,0.27,3.54,0.82,4.56c0.52,1.02,2,2.25,4.44,3.7c7,4.15,11.41,7.56,13.22,10.23s2.73,6.96,2.73,12.88
		c0,4.31-0.5,7.48-1.51,9.52s-2.96,3.75-5.84,5.13c-2.89,1.38-6.25,2.07-10.08,2.07c-4.21,0-7.8-0.8-10.77-2.39
		s-4.92-3.62-5.84-6.09c-0.92-2.46-1.38-5.96-1.38-10.49v-3.96h14.6v7.36c0,2.27,0.21,3.72,0.62,4.37c0.41,0.65,1.14,0.97,2.19,0.97
		c1.05,0,1.82-0.41,2.33-1.23c0.51-0.82,0.77-2.04,0.77-3.66c0-3.56-0.49-5.89-1.46-6.98c-1-1.09-3.45-2.92-7.36-5.49
		c-3.91-2.59-6.5-4.47-7.77-5.64c-1.27-1.17-2.32-2.79-3.16-4.86C63.42,32.68,63,30.04,63,26.83c0-4.63,0.59-8.02,1.77-10.16
		c1.18-2.14,3.09-3.81,5.73-5.02c2.64-1.21,5.83-1.81,9.56-1.81c4.08,0,7.56,0.66,10.44,1.98c2.88,1.32,4.78,2.98,5.71,4.99
		c0.93,2,1.4,5.41,1.4,10.21V29.41z"/>
	<path d="M135.52,11.11v12.1h-9.34v48.36h-15.72V23.21h-9.3v-12.1H135.52z"/>
	<path d="M195.28,11.11v48.36h9.56v12.1h-25.28V11.11H195.28z"/>
	<path d="M224.37,11.11v48.36h9.56v12.1h-25.28V11.11H224.37z"/>
	<path d="M237.74,11.11h26.22v12.1h-10.49v11.46h9.82v11.5h-9.82v13.29H265v12.1h-27.26V11.11z"/>
	<path d="M269.52,11.11h11.76c7.59,0,12.73,0.35,15.4,1.05c2.68,0.7,4.71,1.84,6.11,3.44c1.39,1.59,2.27,3.37,2.61,5.32
		c0.35,1.96,0.52,5.79,0.52,11.52V53.6c0,5.43-0.26,9.06-0.77,10.89s-1.4,3.26-2.67,4.29s-2.84,1.75-4.71,2.17s-4.68,0.62-8.44,0.62
		h-19.83V11.11z M285.24,21.45v39.77c2.26,0,3.66-0.45,4.18-1.36c0.52-0.91,0.78-3.38,0.78-7.41V28.96c0-2.74-0.09-4.49-0.26-5.27
		c-0.17-0.77-0.57-1.34-1.2-1.7C288.13,21.63,286.96,21.45,285.24,21.45z"/>
</g>
<path d="M170.32,56.6c3.16-2.89,7.09-6.5,7.09-13.17c0-4.72-1.26-9.34-2.72-14.69c-1.93-7.1-4.13-15.14-3.96-25.76l0.01-0.75
	l-0.72-0.22c-14.81-4.43-28.11-0.18-28.67,0.01l-0.7,0.23l0.01,0.73c0.16,10.62-2.03,18.66-3.96,25.76
	c-1.46,5.35-2.72,9.98-2.72,14.69c0,6.68,3.93,10.28,7.09,13.17c2.17,1.99,3.88,3.56,3.88,5.53c0,0.92-1,3.1-1.88,5.02
	c-1.69,3.68-3.28,7.16-2.19,9.11c1.59,2.86,11.73,3.23,14.83,3.28c3.07-0.05,13.21-0.42,14.8-3.28c1.09-1.96-0.51-5.43-2.19-9.11
	c-0.88-1.92-1.88-4.1-1.88-5.02C166.44,60.16,168.15,58.59,170.32,56.6z M171.87,43.07c-0.21,6.67-7.37,12.05-16.13,12.05
	c-8.9,0-16.14-5.55-16.14-12.36c0-2.79,1.35-8.75,2.44-13.12c0.47,1.38,1.26,2.83,2.55,4.09c3.95,3.85,10.19,5.93,14.84,4.94
	C163.34,37.84,168.62,38.58,171.87,43.07z"/>
</svg>
