<?xml version="1.0" encoding="utf-8"?>
<!-- Generator: Adobe Illustrator 26.3.1, SVG Export Plug-In . SVG Version: 6.00 Build 0)  -->
<svg version="1.1" id="Layer_1" xmlns="http://www.w3.org/2000/svg" xmlns:xlink="http://www.w3.org/1999/xlink" x="0px" y="0px"
	 viewBox="0 0 276.54 142.89" style="enable-background:new 0 0 276.54 142.89;" xml:space="preserve">
<path d="M20.39,28.25c-0.32,0.16-0.63,0.2-0.95,0.12c-0.32-0.08-0.47-0.27-0.47-0.59c0.47-1.27,0.95-2.81,1.42-4.63
	c0.48-1.82,0.87-3.44,1.19-4.87c0-1.58,0.95-2.93,2.85-4.04c4.11-2.21,8.74-4.27,13.89-6.17c5.14-1.9,10.24-3.4,15.31-4.51
	c9.33-1.9,19.07-2.85,29.2-2.85c12.5,0,22.19,1.39,29.08,4.15c6.88,2.77,10.33,7.71,10.33,14.83c0,3.48-1.15,7.08-3.44,10.8
	c-2.29,3.72-5.5,7.16-9.61,10.33c-4.12,3.17-9.14,5.9-15.07,8.19c-5.93,2.3-12.46,3.84-19.58,4.63c-1.42,0.16-1.9,0.79-1.42,1.9
	c3,5.54,7.16,12.46,12.46,20.77c5.3,8.31,11.27,17.13,17.92,26.47c3.48,4.75,7.4,9.33,11.75,13.77c4.35,4.43,9.06,8.34,14.12,11.75
	c5.06,3.4,10.48,6.13,16.26,8.19c5.78,2.05,11.75,3.09,17.92,3.09c9.49,0,18.91-2.46,28.25-7.36c0.95-0.63,1.42-0.47,1.42,0.47
	c0,0.63-0.32,1.03-0.95,1.19c-5.07,2.69-10.37,4.87-15.9,6.53c-5.54,1.66-11.48,2.49-17.8,2.49c-9.02,0-16.93-0.91-23.74-2.73
	c-6.81-1.82-13.05-4.63-18.75-8.43c-5.7-3.8-11.12-8.71-16.26-14.72c-5.14-6.02-10.48-13.29-16.02-21.84
	c-1.58-2.53-3.48-5.66-5.7-9.38c-2.22-3.72-4.51-7.55-6.88-11.51c-2.37-3.95-4.63-7.79-6.76-11.51c-2.14-3.72-3.92-6.76-5.34-9.14
	c0-0.63,0.24-0.95,0.71-0.95c7.12,0,13.65-0.63,19.58-1.9c5.93-1.26,11.07-3.2,15.43-5.82c4.35-2.61,7.75-5.93,10.21-9.97
	c2.45-4.04,3.68-8.74,3.68-14.12c0-1.9-0.36-3.92-1.07-6.05c-0.71-2.14-1.98-4.04-3.8-5.7c-1.82-1.66-4.24-3.04-7.24-4.15
	c-3.01-1.11-6.81-1.66-11.39-1.66c-1.58,0-3.13,0.2-4.63,0.59c-1.51,0.4-2.81,1.23-3.92,2.49c-1.74,2.06-4.19,5.5-7.36,10.33
	c-3.17,4.83-6.65,10.41-10.44,16.73c-3.8,6.33-7.76,13.06-11.87,20.18c-4.12,7.12-8.03,14.05-11.75,20.77
	c-3.72,6.73-7,12.82-9.85,18.28c-2.85,5.46-4.98,9.77-6.41,12.94c-0.16,0.32-0.48,0.47-0.95,0.47c-0.79-0.16-1.58-0.27-2.37-0.36
	c-0.79-0.08-1.58-0.12-2.37-0.12c-0.79,0-1.74,0-2.85,0c-1.11,0-2.3,0.16-3.56,0.47c-1.9,1.11-3.72,2.61-5.46,4.51
	c-0.32,0-0.67-0.08-1.07-0.24c-0.4-0.16-0.44-0.4-0.12-0.71C14.77,88.46,27.03,69.55,37,52.93C46.97,36.32,55.6,21.13,62.88,7.36
	c0.47-1.26,0.59-2.05,0.36-2.37C63,4.67,62.48,4.51,61.69,4.51c-4.75,0.32-9.49,1.27-14.24,2.85c-4.75,1.58-9.18,3.48-13.29,5.7
	c-2.69,1.58-5.22,3.72-7.6,6.41C24.19,22.16,22.13,25.08,20.39,28.25z"/>
<path d="M163.86,95.63c-3.72,4.04-0.09-0.52-4.28,2.64c-4.2,3.17-8.47,5.78-12.82,7.83c-4.35,2.05-8.59,3.09-12.7,3.09
	c-1.9,0-3.64-0.28-5.22-0.83c-1.58-0.56-2.37-1.94-2.37-4.15c0-2.21,0.79-5.02,2.37-8.43c1.58-3.4,3.44-7,5.58-10.8
	c2.14-3.8,4.35-7.67,6.65-11.63c2.29-3.95,4.15-7.6,5.58-10.92c0.31-0.79,0.36-1.46,0.12-2.02c-0.24-0.55-0.75-0.59-1.54-0.12
	c-1.74,1.11-3.8,2.61-6.17,4.51c-2.37,1.9-4.79,3.92-7.24,6.05c-2.46,2.14-4.83,4.31-7.12,6.53c-2.3,2.22-4.15,4.19-5.58,5.93
	c-2.53,3.96-4.71,7.6-6.53,10.92c-1.82,3.32-4.08,7.04-6.76,11.16c-0.63,0.95-1.11,1.42-1.42,1.42c-0.79,0-1.46-0.87-2.02-2.61
	c-0.56-1.74-0.83-2.85-0.83-3.32c0-1.42,0.99-3.36,2.97-5.82c1.98-2.45,4.15-5.18,6.53-8.19c2.53-5.06,5.14-10.4,7.83-16.02
	c2.69-5.62,4.99-10.64,6.88-15.07c0.47-0.79,1.19-1.19,2.14-1.19c0.95,0,1.82,0.4,2.61,1.19c0.79,0.79,1.19,1.66,1.19,2.61
	c0,0.63-1.15,2.81-3.44,6.53c-2.3,3.72-4.55,8.03-6.76,12.94c3-2.69,6.29-5.54,9.85-8.54c3.56-3,6.96-5.77,10.21-8.31
	c3.24-2.53,6.09-4.63,8.54-6.29c2.45-1.66,4.15-2.49,5.1-2.49c0.63,0,1.22,0.36,1.78,1.07c0.55,0.71,0.83,1.39,0.83,2.02
	c0,0.63-0.4,1.58-1.19,2.85c-1.74,2.53-3.88,5.78-6.41,9.73c-2.53,3.96-4.95,8.03-7.24,12.22c-2.3,4.19-4.24,8.19-5.82,11.99
	c-1.58,3.8-2.37,6.81-2.37,9.02c0,1.9,0.39,3.2,1.19,3.92c0.79,0.71,2.05,1.07,3.8,1.07c2.69,0,5.85-1.03,9.49-3.09
	c3.64-2.05,7.4-4.63,11.28-7.71c3.88-3.09,2.39-5.65,5.88-9.45"/>
<path d="M142.76,105.72c6.49-2.7,7.71-4.72,9.45-7.33c1.74-2.61,3.08-4.78,4.04-6.53c0.95-1.58,2.86-4.35,5.1-8.66
	c2.7-5.2,6.02-11.99,7.55-14.72c3.16-5.66,6.65-11.63,10.21-18.04c3.56-6.41,7-12.54,10.33-18.4c3.32-5.85,6.25-11.19,8.78-16.02
	c2.53-4.83,4.35-8.43,5.46-10.8c0-0.48-0.24-0.79-0.71-0.95c-0.47-0.16-0.87-0.24-1.19-0.24c-5.07,0-10.05,0.47-14.95,1.42
	c-4.91,0.95-9.89,1.51-14.95,1.66c-2.85,0-4.27-1.26-4.27-3.8c0-0.32,0.08-0.95,0.24-1.9C167.98,0.47,168.3,0,168.77,0
	c0.32,0,1.54,0.47,3.68,1.42c2.14,0.95,4.31,1.42,6.53,1.42c2.85,0,6.56-0.12,11.16-0.36c4.59-0.24,8.54-0.51,11.87-0.83
	c3.95-0.16,7.83-0.32,11.63-0.47c3.8-0.16,7.67-0.24,11.63-0.24c6.17,0,12.3,0.4,18.4,1.19c6.09,0.79,11.55,2.37,16.38,4.75
	c4.83,2.37,8.78,5.74,11.87,10.09c3.09,4.35,4.63,10.09,4.63,17.21c0,6.65-1.23,13.33-3.68,20.06c-2.46,6.73-5.74,13.05-9.85,18.99
	c-4.12,5.93-8.9,11.27-14.36,16.02c-5.46,4.75-11.2,8.47-17.21,11.16c-6.02,2.69-12.22,4.63-18.63,5.82
	c-6.41,1.19-12.94,1.78-19.58,1.78c-5.38,0-10.53-0.36-15.43-1.07c-4.91-0.71-9.73-2.33-14.48-4.87c-1.58-0.79-2.93-1.19-4.04-1.19
	c-1.27,0-3.09,0.56-5.46,1.66c-2.37,1.11-5.77,2.24-7.99,3.98L142.76,105.72z M264.19,32.76c0-3.48-0.59-6.96-1.78-10.44
	c-1.19-3.48-3.32-6.65-6.41-9.49c-3.09-2.85-7.24-5.14-12.46-6.88c-5.22-1.74-11.95-2.61-20.18-2.61c-1.74,0-3.21,0.08-4.39,0.24
	c-1.19,0.16-2.25,1.03-3.2,2.61c-3.96,6.17-8.15,12.98-12.58,20.41c-4.43,7.44-8.82,15.04-13.17,22.79
	c-4.35,7.76-8.51,15.31-12.46,22.67c-3.96,7.36-7.36,13.97-10.21,19.82c-0.63,1.27-0.95,2.22-0.95,2.85c0,0.95,0.47,1.9,1.42,2.85
	c2.69,2.85,6.37,4.98,11.04,6.41c4.67,1.42,9.45,2.14,14.36,2.14c9.65,0,18.75-1.9,27.3-5.7c8.54-3.8,16.06-8.98,22.55-15.55
	c6.49-6.56,11.63-14.32,15.43-23.26C262.29,52.66,264.19,43.04,264.19,32.76z"/>
</svg>
